<svg width="40" height="40" viewBox="0 0 40 40" fill="none" xmlns="http://www.w3.org/2000/svg">
  <!-- Celebration & Joy - Cosmic Celebration -->
  <defs>
    <radialGradient id="celebrationGlow" cx="50%" cy="50%">
      <stop offset="0%" style="stop-color:#d4a84b;stop-opacity:0.9" />
      <stop offset="60%" style="stop-color:#f5c542;stop-opacity:0.5" />
      <stop offset="100%" style="stop-color:#4ecdc4;stop-opacity:0.3" />
    </radialGradient>
  </defs>
  <!-- Central glow -->
  <circle cx="20" cy="20" r="18" fill="url(#celebrationGlow)" opacity="0.2"/>
  <!-- Confetti bursts -->
  <path d="M20 20 L22 10" stroke="#d4a84b" stroke-width="2" stroke-linecap="round"/>
  <path d="M20 20 L30 15" stroke="#4ecdc4" stroke-width="2" stroke-linecap="round"/>
  <path d="M20 20 L28 26" stroke="#f5c542" stroke-width="2" stroke-linecap="round"/>
  <path d="M20 20 L18 30" stroke="#d4a84b" stroke-width="2" stroke-linecap="round"/>
  <path d="M20 20 L10 25" stroke="#4ecdc4" stroke-width="2" stroke-linecap="round"/>
  <path d="M20 20 L12 14" stroke="#f5c542" stroke-width="2" stroke-linecap="round"/>
  <!-- Confetti particles -->
  <circle cx="22" cy="8" r="1.5" fill="#d4a84b"/>
  <circle cx="32" cy="15" r="1.5" fill="#4ecdc4"/>
  <circle cx="30" cy="27" r="1.5" fill="#f5c542"/>
  <circle cx="18" cy="32" r="1.5" fill="#d4a84b"/>
  <circle cx="8" cy="25" r="1.5" fill="#4ecdc4"/>
  <circle cx="10" cy="13" r="1.5" fill="#f5c542"/>
  <!-- Dancing sparkles -->
  <circle cx="25" cy="12" r="1" fill="#4ecdc4" opacity="0.7"/>
  <circle cx="28" cy="20" r="1" fill="#d4a84b" opacity="0.7"/>
  <circle cx="15" cy="28" r="1" fill="#f5c542" opacity="0.7"/>
  <circle cx="12" cy="18" r="1" fill="#4ecdc4" opacity="0.7"/>
  <!-- Center burst point -->
  <circle cx="20" cy="20" r="2" fill="#d4a84b"/>
  <circle cx="20" cy="20" r="1" fill="#f5c542"/>
</svg>
