<svg width="40" height="40" viewBox="0 0 40 40" fill="none" xmlns="http://www.w3.org/2000/svg">
  <!-- Ecological Regeneration - Forest Ecosystem -->
  <defs>
    <radialGradient id="ecologyGlow" cx="50%" cy="50%">
      <stop offset="0%" style="stop-color:#4ecdc4;stop-opacity:0.7" />
      <stop offset="100%" style="stop-color:#1a6b5c;stop-opacity:0.4" />
    </radialGradient>
  </defs>
  <circle cx="20" cy="20" r="18" fill="url(#ecologyGlow)" opacity="0.2"/>
  <!-- Tree 1 (left) -->
  <rect x="10" y="24" width="3" height="8" rx="1" fill="#d4a84b" opacity="0.7"/>
  <ellipse cx="11.5" cy="22" rx="4" ry="3" fill="none" stroke="#4ecdc4" stroke-width="1.5" opacity="0.8"/>
  <ellipse cx="11.5" cy="18" rx="3" ry="2" fill="none" stroke="#4ecdc4" stroke-width="1" opacity="0.6"/>
  <!-- Tree 2 (center - tallest) -->
  <rect x="18.5" y="20" width="3" height="12" rx="1" fill="#d4a84b"/>
  <ellipse cx="20" cy="18" rx="5" ry="4" fill="none" stroke="#4ecdc4" stroke-width="2" opacity="0.9"/>
  <ellipse cx="20" cy="14" rx="4" ry="3" fill="none" stroke="#4ecdc4" stroke-width="1.5" opacity="0.7"/>
  <ellipse cx="20" cy="10" rx="3" ry="2" fill="none" stroke="#4ecdc4" stroke-width="1" opacity="0.6"/>
  <!-- Tree 3 (right) -->
  <rect x="27" y="24" width="3" height="8" rx="1" fill="#d4a84b" opacity="0.7"/>
  <ellipse cx="28.5" cy="22" rx="4" ry="3" fill="none" stroke="#4ecdc4" stroke-width="1.5" opacity="0.8"/>
  <ellipse cx="28.5" cy="18" rx="3" ry="2" fill="none" stroke="#4ecdc4" stroke-width="1" opacity="0.6"/>
  <!-- Ground connection/roots -->
  <path d="M8 32 Q14 30, 20 32 Q26 30, 32 32" stroke="#1a6b5c" stroke-width="1.5" opacity="0.5" fill="none"/>
  <!-- Energy points -->
  <circle cx="20" cy="10" r="1.5" fill="#d4a84b"/>
  <circle cx="11.5" cy="18" r="1" fill="#4ecdc4" opacity="0.7"/>
  <circle cx="28.5" cy="18" r="1" fill="#4ecdc4" opacity="0.7"/>
  <circle cx="16" cy="22" r="1" fill="#d4a84b" opacity="0.6"/>
  <circle cx="24" cy="22" r="1" fill="#d4a84b" opacity="0.6"/>
</svg>
