<svg width="40" height="40" viewBox="0 0 40 40" fill="none" xmlns="http://www.w3.org/2000/svg">
  <!-- Bioregional Embassies - Sacred Bridge Building -->
  <defs>
    <linearGradient id="embassyGlow" x1="0%" y1="0%" x2="100%" y2="100%">
      <stop offset="0%" style="stop-color:#4ecdc4;stop-opacity:0.7" />
      <stop offset="100%" style="stop-color:#d4a84b;stop-opacity:0.5" />
    </linearGradient>
  </defs>
  <circle cx="20" cy="20" r="18" fill="url(#embassyGlow)" opacity="0.15"/>
  <!-- Building base -->
  <rect x="12" y="24" width="16" height="8" fill="none" stroke="#4ecdc4" stroke-width="2"/>
  <!-- Pillars -->
  <line x1="14" y1="24" x2="14" y2="14" stroke="#4ecdc4" stroke-width="1.5"/>
  <line x1="18" y1="24" x2="18" y2="14" stroke="#4ecdc4" stroke-width="1.5"/>
  <line x1="22" y1="24" x2="22" y2="14" stroke="#4ecdc4" stroke-width="1.5"/>
  <line x1="26" y1="24" x2="26" y2="14" stroke="#4ecdc4" stroke-width="1.5"/>
  <!-- Roof/pediment -->
  <path d="M10 14 L20 8 L30 14 L28 14 L20 10 L12 14 Z" fill="none" stroke="#d4a84b" stroke-width="2" stroke-linejoin="round"/>
  <!-- Horizontal beam -->
  <line x1="12" y1="14" x2="28" y2="14" stroke="#d4a84b" stroke-width="2"/>
  <!-- Bridge/connection arcs -->
  <path d="M8 28 Q14 26, 20 28" stroke="#4ecdc4" stroke-width="1" opacity="0.5" fill="none"/>
  <path d="M20 28 Q26 26, 32 28" stroke="#4ecdc4" stroke-width="1" opacity="0.5" fill="none"/>
  <!-- Energy points -->
  <circle cx="20" cy="9" r="1.5" fill="#d4a84b"/>
  <circle cx="14" cy="28" r="1" fill="#4ecdc4" opacity="0.7"/>
  <circle cx="20" cy="28" r="1" fill="#d4a84b" opacity="0.7"/>
  <circle cx="26" cy="28" r="1" fill="#4ecdc4" opacity="0.7"/>
</svg>
