<svg width="40" height="40" viewBox="0 0 40 40" fill="none" xmlns="http://www.w3.org/2000/svg">
  <!-- Community Capacity & Trust-Building - Cosmic Heart -->
  <defs>
    <radialGradient id="heartGlow" cx="50%" cy="50%">
      <stop offset="0%" style="stop-color:#d4a84b;stop-opacity:0.9" />
      <stop offset="100%" style="stop-color:#4ecdc4;stop-opacity:0.4" />
    </radialGradient>
  </defs>
  <circle cx="20" cy="20" r="18" fill="url(#heartGlow)" opacity="0.15"/>
  <!-- Heart shape with cosmic feel -->
  <path d="M20 28 C20 28, 10 20, 10 15 C10 12, 12 10, 15 10 C17 10, 19 11, 20 13 C21 11, 23 10, 25 10 C28 10, 30 12, 30 15 C30 20, 20 28, 20 28 Z"
        fill="none" stroke="#d4a84b" stroke-width="2" stroke-linejoin="round"/>
  <!-- Inner glow lines -->
  <path d="M20 13 L20 24" stroke="#4ecdc4" stroke-width="1" opacity="0.6"/>
  <path d="M15 16 Q20 20, 25 16" stroke="#4ecdc4" stroke-width="1" opacity="0.5" fill="none"/>
  <!-- Pulse points -->
  <circle cx="15" cy="14" r="1.5" fill="#4ecdc4"/>
  <circle cx="25" cy="14" r="1.5" fill="#4ecdc4"/>
  <circle cx="20" cy="20" r="1.5" fill="#d4a84b"/>
</svg>
