<svg width="40" height="40" viewBox="0 0 40 40" fill="none" xmlns="http://www.w3.org/2000/svg">
  <!-- Living Systems - Sacred Leaf -->
  <defs>
    <linearGradient id="leafGlow" x1="0%" y1="0%" x2="100%" y2="100%">
      <stop offset="0%" style="stop-color:#4ecdc4;stop-opacity:0.7" />
      <stop offset="100%" style="stop-color:#1a6b5c;stop-opacity:0.5" />
    </linearGradient>
  </defs>
  <circle cx="20" cy="20" r="18" fill="url(#leafGlow)" opacity="0.15"/>
  <!-- Leaf outline -->
  <path d="M12 28 Q12 20, 16 14 Q20 10, 24 14 Q28 20, 28 28 Q24 30, 20 30 Q16 30, 12 28 Z"
        fill="none" stroke="#4ecdc4" stroke-width="2" stroke-linejoin="round"/>
  <!-- Center vein -->
  <path d="M20 30 L20 12" stroke="#1a6b5c" stroke-width="1.5" opacity="0.7"/>
  <!-- Side veins -->
  <path d="M20 16 Q16 18, 14 22" stroke="#1a6b5c" stroke-width="1" opacity="0.5"/>
  <path d="M20 16 Q24 18, 26 22" stroke="#1a6b5c" stroke-width="1" opacity="0.5"/>
  <path d="M20 20 Q16 22, 14 25" stroke="#1a6b5c" stroke-width="1" opacity="0.5"/>
  <path d="M20 20 Q24 22, 26 25" stroke="#1a6b5c" stroke-width="1" opacity="0.5"/>
  <path d="M20 24 Q17 25, 15 27" stroke="#1a6b5c" stroke-width="1" opacity="0.5"/>
  <path d="M20 24 Q23 25, 25 27" stroke="#1a6b5c" stroke-width="1" opacity="0.5"/>
  <!-- Energy points -->
  <circle cx="20" cy="12" r="1.5" fill="#d4a84b"/>
  <circle cx="18" cy="18" r="1" fill="#4ecdc4" opacity="0.7"/>
  <circle cx="22" cy="18" r="1" fill="#4ecdc4" opacity="0.7"/>
  <circle cx="20" cy="24" r="1" fill="#d4a84b" opacity="0.8"/>
</svg>
