<svg width="40" height="40" viewBox="0 0 40 40" fill="none" xmlns="http://www.w3.org/2000/svg">
  <!-- Visibility & Amplification - Megaphone -->
  <defs>
    <radialGradient id="megaphoneGlow" cx="50%" cy="50%">
      <stop offset="0%" style="stop-color:#d4a84b;stop-opacity:0.9" />
      <stop offset="100%" style="stop-color:#4ecdc4;stop-opacity:0.4" />
    </radialGradient>
  </defs>
  <circle cx="20" cy="20" r="18" fill="url(#megaphoneGlow)" opacity="0.2"/>
  <!-- Megaphone cone -->
  <path d="M8 18 L8 22 L15 25 L15 15 Z" fill="none" stroke="#4ecdc4" stroke-width="2" stroke-linejoin="round"/>
  <!-- Megaphone wide end -->
  <ellipse cx="15" cy="20" rx="2" ry="5" fill="none" stroke="#4ecdc4" stroke-width="2"/>
  <!-- Megaphone flare -->
  <path d="M15 15 Q22 12, 28 12 L28 28 Q22 28, 15 25" fill="none" stroke="#d4a84b" stroke-width="2" stroke-linejoin="round"/>
  <!-- Sound waves -->
  <path d="M30 14 Q32 16, 32 20 Q32 24, 30 26" stroke="#4ecdc4" stroke-width="1.5" fill="none" opacity="0.7"/>
  <path d="M33 12 Q36 16, 36 20 Q36 24, 33 28" stroke="#d4a84b" stroke-width="1.5" fill="none" opacity="0.6"/>
  <!-- Handle -->
  <rect x="10" y="23" width="3" height="5" rx="1" fill="#d4a84b" opacity="0.8"/>
  <!-- Energy points -->
  <circle cx="28" cy="20" r="1.5" fill="#d4a84b"/>
  <circle cx="32" cy="20" r="1" fill="#4ecdc4" opacity="0.8"/>
</svg>
