<svg width="40" height="40" viewBox="0 0 40 40" fill="none" xmlns="http://www.w3.org/2000/svg">
  <!-- Regenerative Capital Flows - Sacred Water -->
  <defs>
    <radialGradient id="waterGlow" cx="50%" cy="60%">
      <stop offset="0%" style="stop-color:#4ecdc4;stop-opacity:1" />
      <stop offset="100%" style="stop-color:#1a6b5c;stop-opacity:0.4" />
    </radialGradient>
  </defs>
  <circle cx="20" cy="22" r="16" fill="url(#waterGlow)" opacity="0.25"/>
  <!-- Water droplet shape -->
  <path d="M20 10 C20 10, 14 16, 14 21 C14 25, 16.5 28, 20 28 C23.5 28, 26 25, 26 21 C26 16, 20 10, 20 10 Z"
        fill="none" stroke="#4ecdc4" stroke-width="2" stroke-linejoin="round"/>
  <!-- Flow lines inside droplet -->
  <path d="M18 18 Q20 20, 22 18" stroke="#4ecdc4" stroke-width="1" opacity="0.6" fill="none"/>
  <path d="M18 22 Q20 24, 22 22" stroke="#4ecdc4" stroke-width="1" opacity="0.5" fill="none"/>
  <!-- Energy points -->
  <circle cx="20" cy="15" r="1" fill="#d4a84b" opacity="0.9"/>
  <circle cx="20" cy="24" r="1.5" fill="#4ecdc4"/>
  <circle cx="17" cy="20" r="1" fill="#d4a84b" opacity="0.7"/>
  <circle cx="23" cy="20" r="1" fill="#d4a84b" opacity="0.7"/>
  <!-- Ripple effects around base -->
  <ellipse cx="20" cy="28" rx="5" ry="1.5" stroke="#4ecdc4" stroke-width="0.8" fill="none" opacity="0.4"/>
  <ellipse cx="20" cy="28" rx="7" ry="2" stroke="#4ecdc4" stroke-width="0.6" fill="none" opacity="0.3"/>
</svg>
