<svg width="40" height="40" viewBox="0 0 40 40" fill="none" xmlns="http://www.w3.org/2000/svg">
  <!-- Bioregional Intelligence - Cosmic Brain -->
  <defs>
    <radialGradient id="brainGlow" cx="50%" cy="50%">
      <stop offset="0%" style="stop-color:#4ecdc4;stop-opacity:1" />
      <stop offset="100%" style="stop-color:#1a6b5c;stop-opacity:0.6" />
    </radialGradient>
  </defs>
  <circle cx="20" cy="20" r="18" fill="url(#brainGlow)" opacity="0.2"/>
  <path d="M12 15 C12 12, 14 10, 16 10 C17 10, 18 11, 18 12 C18 11, 19 10, 20 10 C22 10, 24 11, 24 13 C24 11, 26 10, 28 12 C29 13, 29 15, 28 17"
        stroke="#4ecdc4" stroke-width="2" fill="none" stroke-linecap="round"/>
  <path d="M28 17 C28 19, 27 21, 26 23 C25 25, 23 27, 21 28"
        stroke="#4ecdc4" stroke-width="2" fill="none" stroke-linecap="round"/>
  <path d="M12 15 C12 17, 13 19, 14 21 C15 23, 17 25, 19 26"
        stroke="#4ecdc4" stroke-width="2" fill="none" stroke-linecap="round"/>
  <path d="M15 17 Q17 19 19 19 Q21 19 23 17"
        stroke="#d4a84b" stroke-width="1.5" fill="none" stroke-linecap="round" opacity="0.8"/>
  <circle cx="16" cy="14" r="1.5" fill="#d4a84b"/>
  <circle cx="24" cy="14" r="1.5" fill="#d4a84b"/>
  <circle cx="20" cy="24" r="1.5" fill="#4ecdc4"/>
</svg>
