<svg width="40" height="40" viewBox="0 0 40 40" fill="none" xmlns="http://www.w3.org/2000/svg">
  <!-- Bioregional Intelligence Dashboards - Sacred Compass -->
  <defs>
    <radialGradient id="compassGlow" cx="50%" cy="50%">
      <stop offset="0%" style="stop-color:#d4a84b;stop-opacity:1" />
      <stop offset="60%" style="stop-color:#4ecdc4;stop-opacity:0.6" />
      <stop offset="100%" style="stop-color:#1a6b5c;stop-opacity:0.3" />
    </radialGradient>
  </defs>
  <circle cx="20" cy="20" r="18" fill="url(#compassGlow)" opacity="0.2"/>
  <!-- Compass circle -->
  <circle cx="20" cy="20" r="13" fill="none" stroke="#4ecdc4" stroke-width="2"/>
  <circle cx="20" cy="20" r="10" fill="none" stroke="#4ecdc4" stroke-width="1" opacity="0.5"/>
  <!-- Cardinal points -->
  <path d="M20 7 L20 11" stroke="#d4a84b" stroke-width="2" stroke-linecap="round"/>
  <path d="M20 29 L20 33" stroke="#4ecdc4" stroke-width="1.5" stroke-linecap="round"/>
  <path d="M7 20 L11 20" stroke="#4ecdc4" stroke-width="1.5" stroke-linecap="round"/>
  <path d="M29 20 L33 20" stroke="#4ecdc4" stroke-width="1.5" stroke-linecap="round"/>
  <!-- Diagonal points -->
  <path d="M11.5 11.5 L14 14" stroke="#4ecdc4" stroke-width="1" opacity="0.6" stroke-linecap="round"/>
  <path d="M28.5 11.5 L26 14" stroke="#4ecdc4" stroke-width="1" opacity="0.6" stroke-linecap="round"/>
  <path d="M11.5 28.5 L14 26" stroke="#4ecdc4" stroke-width="1" opacity="0.6" stroke-linecap="round"/>
  <path d="M28.5 28.5 L26 26" stroke="#4ecdc4" stroke-width="1" opacity="0.6" stroke-linecap="round"/>
  <!-- Compass needle (pointing direction) -->
  <path d="M20 20 L20 14 L22 20 L20 26 L18 20 Z" fill="#d4a84b" opacity="0.8"/>
  <path d="M20 14 L22 20 L20 20 Z" fill="#d4a84b"/>
  <path d="M20 26 L18 20 L20 20 Z" fill="#4ecdc4" opacity="0.7"/>
  <!-- Center point -->
  <circle cx="20" cy="20" r="2" fill="#d4a84b"/>
  <circle cx="20" cy="20" r="1" fill="#4ecdc4"/>
</svg>
