<svg width="40" height="40" viewBox="0 0 40 40" fill="none" xmlns="http://www.w3.org/2000/svg">
  <!-- Event Production & Cultural Activation - Sacred Fire -->
  <defs>
    <radialGradient id="fireGlow" cx="50%" cy="60%">
      <stop offset="0%" style="stop-color:#d4a84b;stop-opacity:1" />
      <stop offset="100%" style="stop-color:#f5c542;stop-opacity:0.3" />
    </radialGradient>
  </defs>
  <circle cx="20" cy="22" r="16" fill="url(#fireGlow)" opacity="0.3"/>
  <!-- Flame shape -->
  <path d="M20 30 C20 30, 15 25, 15 20 C15 17, 17 15, 18 12 C18 14, 20 15, 20 13 C20 10, 22 8, 22 8 C22 8, 25 12, 25 17 C25 22, 22 26, 20 30 Z"
        fill="none" stroke="#d4a84b" stroke-width="2" stroke-linejoin="round"/>
  <!-- Inner flame -->
  <path d="M20 26 C20 26, 18 23, 18 20 C18 18, 19 17, 20 15 C20 16, 21 17, 21 16 C21 14, 22 13, 22 13 C22 13, 23 16, 23 19 C23 22, 21 24, 20 26 Z"
        fill="none" stroke="#4ecdc4" stroke-width="1.5" stroke-linejoin="round" opacity="0.8"/>
  <!-- Sparks -->
  <circle cx="17" cy="14" r="1" fill="#f5c542" opacity="0.8"/>
  <circle cx="23" cy="11" r="1.5" fill="#d4a84b"/>
  <circle cx="25" cy="16" r="1" fill="#f5c542" opacity="0.7"/>
  <circle cx="20" cy="18" r="1.5" fill="#4ecdc4" opacity="0.9"/>
</svg>
