<svg width="40" height="40" viewBox="0 0 40 40" fill="none" xmlns="http://www.w3.org/2000/svg">
  <!-- Living Systems & Solutions - Sacred Grain -->
  <defs>
    <linearGradient id="grainGlow" x1="0%" y1="0%" x2="0%" y2="100%">
      <stop offset="0%" style="stop-color:#d4a84b;stop-opacity:0.9" />
      <stop offset="100%" style="stop-color:#4ecdc4;stop-opacity:0.5" />
    </linearGradient>
  </defs>
  <circle cx="20" cy="20" r="18" fill="url(#grainGlow)" opacity="0.15"/>
  <!-- Wheat stalks -->
  <!-- Left stalk -->
  <line x1="16" y1="28" x2="16" y2="12" stroke="#d4a84b" stroke-width="1.5"/>
  <ellipse cx="14" cy="13" rx="1.5" ry="2" fill="#4ecdc4" opacity="0.7"/>
  <ellipse cx="14" cy="16" rx="1.5" ry="2" fill="#4ecdc4" opacity="0.7"/>
  <ellipse cx="18" cy="13" rx="1.5" ry="2" fill="#4ecdc4" opacity="0.7"/>
  <ellipse cx="18" cy="16" rx="1.5" ry="2" fill="#4ecdc4" opacity="0.7"/>
  <!-- Center stalk -->
  <line x1="20" y1="30" x2="20" y2="10" stroke="#d4a84b" stroke-width="2"/>
  <ellipse cx="18" cy="11" rx="1.5" ry="2.5" fill="#4ecdc4" opacity="0.8"/>
  <ellipse cx="18" cy="14" rx="1.5" ry="2.5" fill="#4ecdc4" opacity="0.8"/>
  <ellipse cx="22" cy="11" rx="1.5" ry="2.5" fill="#4ecdc4" opacity="0.8"/>
  <ellipse cx="22" cy="14" rx="1.5" ry="2.5" fill="#4ecdc4" opacity="0.8"/>
  <!-- Right stalk -->
  <line x1="24" y1="28" x2="24" y2="12" stroke="#d4a84b" stroke-width="1.5"/>
  <ellipse cx="22" cy="13" rx="1.5" ry="2" fill="#4ecdc4" opacity="0.7"/>
  <ellipse cx="22" cy="16" rx="1.5" ry="2" fill="#4ecdc4" opacity="0.7"/>
  <ellipse cx="26" cy="13" rx="1.5" ry="2" fill="#4ecdc4" opacity="0.7"/>
  <ellipse cx="26" cy="16" rx="1.5" ry="2" fill="#4ecdc4" opacity="0.7"/>
</svg>
