<svg width="40" height="40" viewBox="0 0 40 40" fill="none" xmlns="http://www.w3.org/2000/svg">
  <!-- Ecosystem Weaving - Mycelial Web -->
  <defs>
    <radialGradient id="myceliumGlow" cx="50%" cy="50%">
      <stop offset="0%" style="stop-color:#4ecdc4;stop-opacity:0.8" />
      <stop offset="100%" style="stop-color:#1a6b5c;stop-opacity:0.3" />
    </radialGradient>
  </defs>
  <circle cx="20" cy="20" r="18" fill="url(#myceliumGlow)" opacity="0.2"/>
  <!-- Organic web structure -->
  <path d="M20 8 Q15 12, 10 15 M20 8 Q25 12, 30 15" stroke="#4ecdc4" stroke-width="1.5" fill="none" opacity="0.7"/>
  <path d="M10 15 Q8 20, 10 25 M30 15 Q32 20, 30 25" stroke="#4ecdc4" stroke-width="1.5" fill="none" opacity="0.7"/>
  <path d="M10 25 Q15 28, 20 32 M30 25 Q25 28, 20 32" stroke="#4ecdc4" stroke-width="1.5" fill="none" opacity="0.7"/>
  <path d="M20 20 L10 15 M20 20 L30 15 M20 20 L10 25 M20 20 L30 25" stroke="#d4a84b" stroke-width="0.8" opacity="0.5"/>
  <!-- Node points -->
  <circle cx="20" cy="8" r="1.5" fill="#d4a84b"/>
  <circle cx="10" cy="15" r="1.5" fill="#4ecdc4"/>
  <circle cx="30" cy="15" r="1.5" fill="#4ecdc4"/>
  <circle cx="20" cy="20" r="2" fill="#d4a84b"/>
  <circle cx="10" cy="25" r="1.5" fill="#4ecdc4"/>
  <circle cx="30" cy="25" r="1.5" fill="#4ecdc4"/>
  <circle cx="20" cy="32" r="1.5" fill="#d4a84b"/>
</svg>
