<svg width="40" height="40" viewBox="0 0 40 40" fill="none" xmlns="http://www.w3.org/2000/svg">
  <!-- Cosmic Star / Logo Icon -->
  <defs>
    <radialGradient id="starGlow" cx="50%" cy="50%">
      <stop offset="0%" style="stop-color:#d4a84b;stop-opacity:1" />
      <stop offset="40%" style="stop-color:#d4a84b;stop-opacity:0.8" />
      <stop offset="100%" style="stop-color:#4ecdc4;stop-opacity:0.3" />
    </radialGradient>
  </defs>
  <!-- Outer glow -->
  <circle cx="20" cy="20" r="18" fill="url(#starGlow)" opacity="0.2"/>
  <!-- 8-pointed star -->
  <path d="M20 8 L21.5 17 L28 12 L23 19 L32 20 L23 21 L28 28 L21.5 23 L20 32 L18.5 23 L12 28 L17 21 L8 20 L17 19 L12 12 L18.5 17 Z"
        fill="none" stroke="#d4a84b" stroke-width="2" stroke-linejoin="miter"/>
  <!-- Inner star -->
  <path d="M20 12 L21 18 L24 15 L22 20 L27 20 L22 20 L24 25 L21 22 L20 28 L19 22 L16 25 L18 20 L13 20 L18 20 L16 15 L19 18 Z"
        fill="none" stroke="#4ecdc4" stroke-width="1.5" stroke-linejoin="miter" opacity="0.7"/>
  <!-- Center point -->
  <circle cx="20" cy="20" r="2" fill="#d4a84b"/>
  <circle cx="20" cy="20" r="1" fill="#4ecdc4" opacity="0.9"/>
</svg>
