<svg width="40" height="40" viewBox="0 0 40 40" fill="none" xmlns="http://www.w3.org/2000/svg">
  <!-- Tools & Infrastructure -->
  <defs>
    <radialGradient id="toolsGlow" cx="50%" cy="50%">
      <stop offset="0%" style="stop-color:#4ecdc4;stop-opacity:0.8" />
      <stop offset="100%" style="stop-color:#1a6b5c;stop-opacity:0.4" />
    </radialGradient>
  </defs>
  <circle cx="20" cy="20" r="18" fill="url(#toolsGlow)" opacity="0.2"/>
  <!-- Wrench -->
  <path d="M12 28 L12 22 L14 20 L16 22 L16 28 L14 30 Z" fill="none" stroke="#4ecdc4" stroke-width="2" stroke-linejoin="round"/>
  <circle cx="14" cy="18" r="2" fill="none" stroke="#4ecdc4" stroke-width="1.5"/>
  <path d="M14 16 L14 12" stroke="#4ecdc4" stroke-width="1.5"/>
  <!-- Hammer -->
  <rect x="22" y="16" width="8" height="3" rx="1" fill="none" stroke="#d4a84b" stroke-width="2"/>
  <path d="M22 17.5 L16 17.5 L12 28 L16 28 Z" fill="none" stroke="#d4a84b" stroke-width="2" stroke-linejoin="round"/>
  <!-- Gear/cog -->
  <circle cx="28" cy="28" r="4" fill="none" stroke="#4ecdc4" stroke-width="1.5"/>
  <circle cx="28" cy="28" r="2" fill="none" stroke="#4ecdc4" stroke-width="1"/>
  <!-- Gear teeth -->
  <line x1="28" y1="24" x2="28" y2="23" stroke="#4ecdc4" stroke-width="1"/>
  <line x1="28" y1="32" x2="28" y2="33" stroke="#4ecdc4" stroke-width="1"/>
  <line x1="24" y1="28" x2="23" y2="28" stroke="#4ecdc4" stroke-width="1"/>
  <line x1="32" y1="28" x2="33" y2="28" stroke="#4ecdc4" stroke-width="1"/>
  <!-- Energy points -->
  <circle cx="14" cy="12" r="1" fill="#d4a84b" opacity="0.8"/>
  <circle cx="26" cy="14" r="1" fill="#4ecdc4" opacity="0.7"/>
</svg>
